<?xml version="1.0" encoding="UTF-8"?>
<!DOCTYPE svg PUBLIC "-//W3C//DTD SVG 1.1//EN" "http://www.w3.org/Graphics/SVG/1.1/DTD/svg11.dtd">
<!-- Creator: CorelDRAW -->
<svg xmlns="http://www.w3.org/2000/svg" xml:space="preserve" width="161.864mm" height="63.3328mm" version="1.1" style="shape-rendering:geometricPrecision; text-rendering:geometricPrecision; image-rendering:optimizeQuality; fill-rule:evenodd; clip-rule:evenodd"
viewBox="0 0 16187.14 6333.59"
 xmlns:xlink="http://www.w3.org/1999/xlink"
 xmlns:xodm="http://www.corel.com/coreldraw/odm/2003">
 <defs>
  <style type="text/css">
   <![CDATA[
    .fil0 {fill:#07392D}
    .fil2 {fill:#08392E}
    .fil1 {fill:#083A2E}
    .fil3 {fill:#093A2F}
    .fil4 {fill:#0A3B2F}
   ]]>
  </style>
 </defs>
 <g id="Layer_x0020_1">
  <metadata id="CorelCorpID_0Corel-Layer"/>
  <g id="_105553379661728">
   <path class="fil0" d="M-0 364.85l0 1014.73c0,198.76 177.06,250.84 270.1,288.53l1770.4 714.8 0 307.84 -957.56 0 0 -399.05c0,-26.69 -18.91,-45.6 -45.59,-45.6l-1003.15 0c-26.26,0 -34.2,7.93 -34.2,34.2l0 832.31c0,95.2 69.1,194.18 122.34,242.49 29.66,26.91 71.26,53.12 112.1,70.3 47.71,20.08 90.26,29.25 153.16,29.25l2336.87 0c230.9,0 387.58,-170.45 387.58,-399.06l0 -991.93c0,-148.1 -71.65,-173.75 -163.25,-212.97l-1865.85 -767.56 0 -307.85 957.56 0 0 376.26 1037.34 0c26.27,0 34.2,-7.94 34.2,-34.21l0 -729.7c0,-69.29 -10.88,-114.22 -34.1,-159.73 -72.74,-142.57 -170.15,-227.92 -376.28,-227.92l-2268.48 0c-210.48,0 -433.18,120.47 -433.18,364.85z"/>
   <path class="fil0" d="M7215.82 34.2l0 3386.25c0,26.28 7.93,34.21 34.19,34.21l1037.35 0 0 -1219.96c0,-26.27 7.93,-34.21 34.19,-34.21l1060.14 0 0 1254.17 1037.35 0c26.26,0 34.2,-7.93 34.2,-34.21l0 -3374.84c0,-26.68 -18.92,-45.6 -45.6,-45.6l-1025.95 0 0 1276.97 -1094.33 0 0 -1242.77c0,-26.27 -7.93,-34.2 -34.2,-34.2l-1003.15 0c-26.26,0 -34.19,7.93 -34.19,34.2z"/>
   <path class="fil0" d="M3545.21 34.2l0 3021.4c0,143.76 41.2,191.23 109.21,278.42 27.43,35.17 72.1,67.77 108.99,84.83 49.31,22.82 99.37,35.8 169.39,35.8l2473.67 0c223.36,0 376.18,-171.56 376.18,-364.85l0 -3055.61c0,-26.27 -7.93,-34.2 -34.2,-34.2l-1014.54 0c-26.27,0 -34.2,7.93 -34.2,34.2l0 2588.15 -1082.94 0 0 -2588.15c0,-26.27 -7.93,-34.2 -34.2,-34.2l-1003.14 0c-26.27,0 -34.2,7.93 -34.2,34.2z"/>
   <path class="fil0" d="M12596.33 1174.36l11.39 0c0,49.35 17.52,86.89 29.66,129.96 13.67,48.51 20.28,77.36 34.47,125.15 25.1,84.54 49.41,169.99 70.56,248.67 23.79,88.53 41.22,165.51 65.95,253.26l72.94 246.29 -581.37 0c19.12,-82.1 45.44,-165.16 72.67,-246.55 65.91,-197.07 120.99,-433.41 185.21,-624.27 11.53,-34.27 38.5,-100.34 38.5,-132.51zm-1789.71 2280.3l1060.14 0c33.76,0 29.48,-12.75 37.24,-42.56 3.87,-14.9 9.55,-41.86 15.17,-64.63 12.51,-50.65 21.72,-74.43 34.21,-125.42 11.76,-48.02 20.5,-77.96 34.5,-125.11 12.78,-43.03 22.16,-87.15 38.46,-121.15l1128.55 0c18.76,80.54 38.42,152.88 61.54,234.89 12.16,43.16 19.87,72.19 31.76,116.45 10.05,37.44 28.13,80.01 32.09,127.53l1094.33 0 -842.16 -2372.91c-27.87,-75.47 -50.22,-139.47 -76.9,-219.52l-228.72 -649.15c-31.53,-77.11 -46.89,-144.19 -83.34,-213.08l-1117.14 0 -1130.32 3099.42c-11.7,35.09 -20.71,75.46 -33.86,114.37 -17.54,51.89 -55.55,174.12 -55.55,240.87z"/>
   <path class="fil0" d="M14705.22 34.2l0 3386.25c0,26.28 7.93,34.21 34.2,34.21l1037.34 0 0 -3420.46c0,-26.27 -7.93,-34.2 -34.2,-34.2l-1003.14 0c-26.27,0 -34.2,7.93 -34.2,34.2z"/>
   <path class="fil1" d="M8914.33 4651.82l-182.39 0 0 -684.09c143.17,0 276.52,-17.89 379.41,76.58 171.09,157.11 100.81,607.51 -197.02,607.51zm-307.79 -775.31l0 877.92c165.24,0 195.55,33.05 408.04,-13.74 51.57,-11.36 122.31,-49.53 162.23,-77.17 82.02,-56.79 159.3,-217.96 159.3,-330.95 0,-153.31 -7.74,-241.34 -122.5,-356.35 -163.31,-163.66 -429.35,-99.71 -607.07,-99.71z"/>
   <path class="fil0" d="M9860.48 4663.22c-301.09,0 -344.88,-395.14 -219.17,-595.46 123.55,-196.88 481.35,-146.86 481.35,242.01 0,158.68 -81.04,353.45 -262.18,353.45zm-45.6 102.62c130.28,0 220.09,-16.42 313.03,-108.78 158.94,-157.95 175.95,-466.74 24.61,-673.58 -138.37,-189.13 -563,-195.22 -672.67,128.01 -100.55,296.32 22.66,654.35 335.04,654.35z"/>
   <path class="fil1" d="M5266.53 4321.17c0,370.37 294.41,477.33 601.68,430.77 43.25,-6.55 86.58,-22.09 127.88,-31.71 20.3,-87.13 20.3,-357.55 0,-444.66 -337.58,0 -296.38,-26.85 -296.38,102.62 79.5,18.52 75.73,11.4 170.99,11.4l0 250.83c-82.12,19.13 -95.63,11.4 -193.79,11.4 -152.19,0 -273.58,-152.58 -273.58,-307.85 0,-124.56 -1.19,-186.83 99.69,-287.93 32.25,-32.32 39.04,-42.48 86.96,-61.24 134.12,-52.52 241.2,-20.67 360.52,7.14 4.04,-48.65 18.75,-53.97 22.79,-102.62 -109.46,-52.53 -351.27,-46.53 -460.1,7.27 -149.84,74.08 -246.65,222.72 -246.65,414.58z"/>
   <path class="fil2" d="M7307.02 4275.57l-125.4 0 0 -307.85c115.99,0 296.38,-33.69 296.38,159.62 0,82.08 -82.87,148.23 -170.99,148.23zm-250.79 -399.06l0 877.92c164.77,0 125.4,58.94 125.4,-376.25 102.57,0 144.7,-14.33 198.59,29.4 22.56,18.31 4.61,1.84 17.68,16.51 24.44,27.41 35.56,60.43 46.07,102.14 10.06,39.95 15.06,66.26 25.02,111.8 8.53,39.01 27.87,68.93 31.82,116.4l125.39 0 -56.84 -239.58c-37.5,-147.16 -67.87,-124.58 -114.15,-193.68 193.67,-45.12 247.84,-456.06 -136.8,-456.06l-262.18 11.4z"/>
   <path class="fil2" d="M10669.83 4275.57l-125.39 0 0 -307.85c100.83,0 296.38,-32.46 296.38,148.22 0,99.4 -72.7,159.63 -171,159.63zm-250.78 -399.06l0 877.92c164.77,0 125.4,58.94 125.4,-376.25 260.13,0 236.34,20.59 319.18,376.25l125.4 0 -56.05 -240.37c-26.14,-135.24 -60.15,-111.06 -114.94,-192.89 193.27,-45.03 247.28,-456.06 -136.8,-456.06l-262.18 11.4z"/>
   <path class="fil2" d="M6189.87 4435.19c0,184.89 99.94,330.65 284.98,330.65 101.97,0 204.73,-2.26 282.18,-94.01 42.57,-50.43 82.59,-135.85 82.59,-225.23l0 -581.48c-142.94,0 -126.61,-11.18 -125.51,91.09 1.46,135.42 19.29,514.33 -31.63,606.85 -59.72,108.5 -182.75,124.76 -271.83,73.15 -35.11,-20.34 -44.3,-29.45 -61.55,-63.85 -39.33,-78.44 -33.85,-114.57 -33.84,-228.38l0.04 -376.29c0.88,-114.17 20.18,-102.58 -125.44,-102.58l0 570.08z"/>
   <path class="fil0" d="M8082.17 4001.94l125.4 376.25 -239.39 0c23.92,-102.7 78.34,-223.21 114,-376.25zm-364.78 752.5l125.39 0 93 -273.03 305.97 -0.61c2.58,31.02 76.54,243.1 91.19,273.64l125.4 0 -296.38 -889.32 -148.19 0c-16.78,72 -47.9,149.41 -72.68,223.75 -25.95,77.87 -48.65,151.12 -73.9,222.52 -14.17,40.07 -25.09,62.88 -40.09,108.13l-109.71 334.93z"/>
   <path class="fil2" d="M11444.99 4013.34l125.4 364.85 -239.38 0c5.8,-69.77 89.34,-259.04 113.99,-364.85zm-364.78 741.1l125.4 0c19.11,-39.83 30.19,-90.38 46.97,-135.45 15.21,-40.83 39.76,-84.53 44.22,-138.2l307.79 0c4.02,48.37 71.24,235.94 91.19,273.64l125.4 0c-4.2,-50.46 -52.18,-176.18 -71.95,-224.48l-224.44 -664.84 -136.79 0 -307.79 889.32z"/>
   <path class="fil0" d="M6440.66 5689.36l0 444.65 125.39 0 0 -376.25c221.01,-51.49 193.96,30.75 193.79,239.43 -0.12,149.94 -25.06,136.82 125.4,136.82l0 -364.85c50.69,-26.83 143.21,-57.77 183.1,10.7 32.97,56.59 22.09,276.57 22.09,354.15l125.4 0c0,-249.56 51.38,-513.07 -216.59,-513.07 -100.26,0 -147.63,45.6 -159.6,45.6 -37.6,0 -113.09,-85.82 -298.19,-24.61 -45.15,14.92 -62.52,37.2 -100.77,47.42z"/>
   <path class="fil0" d="M4662.36 4754.43l467.37 0c44.32,0 34.2,-29.25 34.2,-102.62l-353.39 0c-58.69,0 -34.19,-112.58 -34.19,-273.63 0,-26.27 7.93,-34.21 34.19,-34.21l307.79 0 0 -102.62 -307.79 0c-57.89,0 -34.19,-104.72 -34.19,-262.23l330.58 0c45.45,0 34.2,-32.29 34.2,-114.02l-478.77 0 0 889.32z"/>
   <path class="fil0" d="M14066.86 5883.18c0,-190.85 194,-139.65 227.98,-136.82l0 250.83c-93.01,21.68 -227.98,16.27 -227.98,-114.02zm-125.4 -34.2l0 57c0,126.83 122.92,216.63 250.78,216.63 57.29,0 51.04,-10.25 102.6,-11.4 -4.94,222.11 -284.67,57.01 -284.98,57.01 -37.84,0 -54.8,42.71 -68.39,68.4 78.38,117.08 334.38,133.4 430.39,20.01 63.27,-74.72 48.38,-132.12 48.38,-259.44 0,-106.42 0,-212.83 0,-319.24 -68.18,-15.89 -216.78,-126.1 -394.72,4.25 -41.8,30.62 -84.05,98.26 -84.05,166.77z"/>
   <path class="fil0" d="M3966.99 4081.74c0,313.08 387.58,230.39 387.58,410.45 0,94.63 -32.56,171.03 -159.59,171.03 -85.8,0 -160.12,-27.12 -216.59,-57 -13.01,27.12 -26.59,69.95 -34.2,102.61 114.31,76.56 360.49,86.09 464.88,-13.89 141.44,-135.48 83.69,-352.15 -84.93,-423.13 -103.55,-43.57 -231.76,-70.63 -231.76,-190.06 0,-75.16 58.62,-104.15 122.6,-117.02 96.39,-19.4 122.13,23.89 207.99,25.8 9.87,-42.37 21.65,-51.18 22.8,-102.62 -89.12,-20.76 -89.45,-34.2 -205.19,-34.2 -141.87,0 -273.58,87.98 -273.58,228.03z"/>
   <path class="fil1" d="M9130.92 5894.58c0,-195.62 186.94,-151.64 227.99,-148.22l0 273.63c-60.64,14.13 -128.32,26.36 -180.26,-24.94 -19.51,-19.28 -47.73,-67.73 -47.73,-100.47zm227.99 -433.25l0 171.02c-202.26,-47.13 -353.39,83.36 -353.39,228.03l0 57c0,218.12 244.16,266.26 439.78,200.44 29.59,-9.96 19.09,-10.72 50.39,-18.01l0 -649.88c-54.76,-12.76 -78.78,-23.39 -136.79,11.4z"/>
   <path class="fil2" d="M5540.11 6031.39c-41.32,0 -63.63,-9.57 -91.19,-22.8 0,-235.72 -33.1,-273.63 91.19,-273.63 190.24,0 196.1,296.43 0,296.43zm-216.59 -581.47l0 649.88c113.2,54.32 331.12,74.96 419.17,-25.41 133.79,-152.51 85.26,-453.45 -191.18,-453.45 -57.29,0 -51.04,10.25 -102.6,11.4 0,-211.05 16.67,-193.83 -68.4,-193.83 -17.95,0 -43.19,6.05 -56.99,11.41z"/>
   <path class="fil0" d="M45.6 5632.34c0,111.11 59.97,159.1 136.65,193.97 41.2,18.74 216.73,44.51 216.73,113.88 0,25.2 -19.56,52.89 -37.8,64.8 -91.76,59.91 -189.34,0.67 -269.97,-42 -36.26,31.52 -55.48,45.56 -57,114.02 17.96,4.8 268.24,152.29 430.58,8.8 62.67,-55.4 83.91,-185.31 16.63,-273.67 -20.79,-27.3 -61.97,-47.07 -98.19,-61.41 -41.84,-16.57 -80,-27.14 -121.24,-38.36 -183.1,-49.82 -76.77,-234.71 194,-91.41 34.54,-51.6 38.75,-24.31 56.99,-102.62 -111.07,-74.38 -114.6,-68.4 -262.18,-68.4 -120.69,0 -205.19,108.12 -205.19,182.42z"/>
   <path class="fil2" d="M9849.08 6031.39c-187.82,0 -187.82,-296.43 0,-296.43 162.2,0 172.03,296.43 0,296.43zm-273.59 -159.62c0,385.48 524.38,330.43 524.38,45.6 0,-437.81 -524.38,-342.66 -524.38,-45.6z"/>
   <path class="fil0" d="M11239.81 5905.98c0,-237.05 262.18,-224.1 262.18,-11.4 0,192.99 -262.18,171.47 -262.18,11.4zm125.39 239.43c357.51,0 370.99,-524.47 -11.4,-524.47 -136.02,0 -241.95,117.41 -247.75,263.82 -4.92,123.95 94.83,260.64 259.15,260.64z"/>
   <path class="fil0" d="M2770.06 5837.57l-216.59 0c34.8,-149.38 213.3,-147.9 216.59,0zm-353.38 45.6c0,247.63 250.74,338.92 467.37,193.83 -5.35,-22.97 -6.45,-29.44 -18.29,-50.12l-32.39 -36.01c-1.24,-1.07 -4.27,-3.31 -6.31,-5.08 -107.03,71.68 -262.08,69.87 -273.59,-68.41l341.99 0c0,-84.07 1.27,-175.35 -59.89,-236.53 -139.69,-139.71 -418.88,-30.05 -418.88,202.33z"/>
   <path class="fil0" d="M15571.57 5894.58c0,-225.06 262.19,-199.87 262.19,-22.8 0,72.39 -12.34,159.62 -125.4,159.62 -88.13,0 -136.8,-48.66 -136.8,-136.82zm-125.39 -45.6l0 68.4c0,299.47 512.97,302.59 512.97,0 0,-108.25 10.9,-147.13 -82.35,-236.86 -129.73,-124.83 -430.61,-50.49 -430.61,168.46z"/>
   <path class="fil0" d="M934.76 5837.57l-216.59 0c12.38,-148.76 204.21,-148.76 216.59,0zm-353.38 45.6c0,272.71 270.31,325.81 467.37,193.83l-57 -91.21c-83.8,44.35 -61.26,45.6 -170.99,45.6 -65.46,0 -101.11,-47.73 -102.6,-114.02l341.99 0 0 -79.8c0,-292.1 -478.77,-299.23 -478.77,45.6z"/>
   <path class="fil0" d="M4605.35 5894.58c0,-207.37 273.58,-216.99 273.58,-11.4 0,212.75 -273.58,180.28 -273.58,11.4zm-125.39 -11.4c0,361.85 524.37,331.78 524.37,22.8 0,-410.09 -524.37,-346.55 -524.37,-22.8z"/>
   <path class="fil0" d="M12413.95 5723.56c50.68,0 96.46,40.33 102.59,114.02l-182.39 0c-83.72,0 11.75,-114.02 79.8,-114.02zm-250.79 159.62c0,25.11 10.7,83.33 17.93,107.48 49.61,165.48 271.47,205.55 449.44,86.35l-56.99 -91.21c-93.43,62.57 -270.18,84.43 -273.58,-68.41l341.98 0 0 -91.2c0,-209.58 -294.12,-270.44 -410.67,-125.71 -37.76,46.89 -68.1,113.66 -68.1,182.71z"/>
   <path class="fil0" d="M6189.87 5837.57l-182.39 0c12.61,-151.63 216.59,-132.68 216.59,-22.8 0,15.97 -15.54,22.8 -34.2,22.8zm-319.19 45.6c0,249.41 252.16,337.97 467.38,193.83 -10.32,-44.3 -24.08,-69.16 -57,-91.21 -97.87,65.55 -261.12,81.32 -273.58,-68.41l341.98 0c0,-82.47 2.7,-178.44 -61.49,-234.92 -165.38,-145.51 -417.28,-18.66 -417.28,200.72z"/>
   <path class="fil0" d="M13724.87 5837.57l-182.39 0c3.56,-42.85 11.73,-53.56 36.33,-77.67 115.25,-112.96 230.58,77.67 146.06,77.67zm-319.19 22.8c0,302.03 245.91,339.21 455.98,228.03 0,-54.14 5.4,-54.23 -45.6,-102.62 -83.81,44.35 -61.26,45.6 -170.99,45.6 -65.46,0 -101.12,-47.73 -102.6,-114.02l307.79 0c79.36,0 40.75,-296.43 -205.19,-296.43 -122.7,0 -239.39,117.38 -239.39,239.43z"/>
   <path class="fil1" d="M1139.95 5666.55c0,327.03 -45.07,478.86 262.18,478.86 78.59,0 153.43,-29.61 205.19,-57l0 -421.86c0,-44.33 -29.24,-34.2 -102.6,-34.2 -26.26,0 -34.2,7.94 -34.2,34.2l0 353.45c-149.71,22 -68.88,15.05 -182.39,-11.4 -38.31,-164.5 34.31,-376.25 -56.99,-376.25 -64.6,0 -91.19,-8.96 -91.19,34.2z"/>
   <path class="fil1" d="M8446.95 5746.36l0 353.45c0,44.33 29.24,34.2 102.6,34.2 40.33,0 34.85,-28.36 34.76,-67.84l-0.56 -308.41c75.41,-17.57 84.29,-34.82 147.57,-10.78 30.3,11.51 23.31,4.95 39.38,29.02 55.9,83.75 -29.31,358.01 52.43,358.01 131.54,0 102.6,40.78 102.6,-285.03 0,-332.48 -478.77,-244.69 -478.77,-102.62z"/>
   <path class="fil2" d="M3693.41 5666.55c0,304.82 -50.71,478.86 239.38,478.86 93.6,0 166.74,-24.59 227.99,-57l0 -410.45c0,-60.27 -136.8,-68.81 -136.8,-11.41l0 353.45c-227.81,33.47 -208.17,-0.89 -204.89,-308.14 0.92,-85.75 8.54,-79.51 -91.49,-79.51 -26.26,0 -34.19,7.94 -34.19,34.2z"/>
   <path class="fil2" d="M14522.83 5677.96c0,115.98 -15.96,319.7 44.96,399.69 97.23,127.69 339.79,41.41 422.41,22.16l0.12 -376.37c1.04,-96.84 13.08,-91.09 -91.31,-91.09 -40.33,0 -34.85,28.36 -34.76,67.84l0.56 308.41c-27.56,13.23 -49.86,22.8 -91.19,22.8 -140.46,0 -115.49,-97.07 -113.95,-296.47 0.82,-107.82 15.65,-102.58 -91.24,-102.58 -26.68,0 -45.59,18.92 -45.59,45.61z"/>
   <path class="fil0" d="M12949.71 5757.76c0,71.76 -13.3,134.47 120.57,164.45 44.7,10.02 153.02,22.36 153.02,63.58 0,79.12 -134.38,61.86 -200.21,29.23 -0.09,-0.05 -62.33,-71.91 -96.17,73.38 106.37,56.29 263.34,91.48 367.27,13.89 69.13,-51.61 98.5,-200.49 -52.31,-260.49 -41.66,-16.58 -178.16,-23.28 -178.16,-61.24 0,-106.57 206.35,-25.55 239.38,-22.8 29.45,-43.98 34.2,-37.69 34.2,-91.21 -94.45,-49.98 -231.05,-68.32 -328.84,-9.65 -32.07,19.24 -58.74,52.74 -58.74,100.86z"/>
   <path class="fil2" d="M2086.09 6134.01l125.4 0c15.84,-29.95 270.04,-501.66 148.19,-501.66l-79.79 0c-27.18,51.38 -59.29,184.2 -84,258.02 -13.68,40.86 -26.55,54.08 -29.99,95.42l-136.79 -353.45c-159.86,0 -151.98,-31.18 -58.44,252.28 34.63,104.97 105.49,212.1 115.44,249.38z"/>
   <path class="fil2" d="M10590.04 5643.75c3.68,165.31 176.24,463.85 182.39,490.26l125.4 0c84.1,-158.97 103.36,-203.88 163.9,-383.34 43.25,-128.23 37.04,-118.33 -95.5,-118.33l-136.79 353.45 -114 -353.45c-43.38,0 -86.34,-3.76 -125.4,11.4z"/>
   <path class="fil1" d="M7648.99 5643.75c47.57,204.25 103.52,319.62 193.79,490.26l125.4 0c7.78,-29.15 36.51,-73.31 53.19,-106.43 19.98,-39.66 36.27,-77.97 50.98,-120.02 103.45,-295.57 109.7,-275.22 -12.98,-275.22 -52.66,0 -50.56,78.05 -84,178.21l-75.58 186.64c-19.29,-82.78 -86.31,-245.98 -114,-364.85 -50.59,0 -101.23,-2.4 -136.8,11.4z"/>
   <path class="fil2" d="M3191.84 5883.18c0,241.46 231.32,305.54 376.35,239.61l68.22 -45.78c-31.45,-59.45 -8.38,-48.05 -68.39,-79.81 -294.78,156.01 -296.82,-262.23 -125.4,-262.23 75.21,0 61.81,-0.75 114,34.2 32.81,-17.36 66.75,-28.72 68.39,-102.62 -62.67,-14.6 -210.77,-116.34 -356.43,31.16 -41.38,41.89 -76.74,107.57 -76.74,185.47z"/>
   <path class="fil0" d="M11695.78 5860.38c0,166.18 64.62,285.03 262.18,285.03 52.42,0 170.99,-28.75 170.99,-68.4 0,-25.51 -37.4,-79.81 -56.99,-79.81 -19.15,0 -142.13,83.24 -212.5,-4.09 -47.92,-59.46 -43.82,-143.63 -8.69,-205.74 47.07,-83.26 145.73,-52.1 209.79,-18.2 60.65,-40.62 57,-49.17 57,-102.62 -234.03,-123.85 -421.78,27.17 -421.78,193.83z"/>
   <path class="fil3" d="M4263.38 5449.93l0 649.88c0,44.33 29.24,34.2 102.6,34.2 26.26,0 34.19,-7.93 34.19,-34.2l0 -638.48c-82.78,-39.73 -84.11,-16.92 -136.79,-11.4z"/>
   <path class="fil0" d="M15104.2 5689.36l0 444.65 125.4 0c0,-483.46 -34.71,-387.65 170.99,-387.65 17.58,-36.65 22.8,-58.04 22.8,-114.02 -110.98,-9.23 -173.51,-40.56 -319.19,57.01z"/>
   <polygon class="fil0" points="2986.65,6134.01 3112.04,6134.01 3112.04,5632.34 2986.65,5632.34 "/>
   <path class="fil2" d="M8218.96 6134.01l125.4 0 0 -467.46c0,-26.26 -7.93,-34.2 -34.19,-34.2l-91.2 0 0 501.66z"/>
   <path class="fil2" d="M12254.35 5541.13c0,30.63 12.07,27.86 45.6,57.01 19.92,-13.35 29.07,-21.71 52.36,-38.84 12.59,-9.26 14.83,-11.29 25.53,-20.07l24.7 -20.9 113.99 79.81c50.37,-75.22 78.07,-41.63 -8.55,-128.27 -63.47,-63.48 -35.12,-54.16 -151.04,-54.16l-102.6 125.42z"/>
   <path class="fil3" d="M10168.26 6019.99c0,243.86 -14.84,166.59 -22.79,262.23l45.26 23.43c66.97,-45.57 93.81,-123.43 108.28,-201.32 8.82,-47.51 -1.67,-40.15 -5.35,-84.34 -41.57,-9.68 -71.41,-20.95 -125.4,0z"/>
   <path class="fil4" d="M7318.41 5871.78c0,71.01 44.4,45.6 284.99,45.6 0,-131.64 29.51,-102.61 -273.59,-102.61 -5.95,25.56 -11.4,26.21 -11.4,57z"/>
   <path class="fil2" d="M2941.04 5563.93l22.8 34.21c67.23,0 134.41,-70.52 216.59,-114.02 -17.18,-73.77 -33.58,-72.12 -91.19,-102.62 -45.83,68.44 -102.36,113.98 -148.2,182.42z"/>
   <path class="fil0" d="M16027.55 6054.21l0 57c111.81,74.88 159.59,34.07 159.59,-91.21 -25.09,-16.8 -69.55,-77.25 -136.87,-22.87 -17.12,13.84 -22.72,25.71 -22.72,57.08z"/>
   <path class="fil2" d="M8196.17 5484.13c0,119.11 159.59,121.1 159.59,11.4 0,-126.2 -159.59,-80.01 -159.59,-11.4z"/>
  </g>
 </g>
</svg>
