<?xml version="1.0" encoding="UTF-8"?>
<!DOCTYPE svg PUBLIC "-//W3C//DTD SVG 1.1//EN" "http://www.w3.org/Graphics/SVG/1.1/DTD/svg11.dtd">
<!-- Creator: CorelDRAW -->
<svg xmlns="http://www.w3.org/2000/svg" xml:space="preserve" width="192.793mm" height="44.3124mm" version="1.1" style="shape-rendering:geometricPrecision; text-rendering:geometricPrecision; image-rendering:optimizeQuality; fill-rule:evenodd; clip-rule:evenodd"
viewBox="0 0 19271.42 4429.42"
 xmlns:xlink="http://www.w3.org/1999/xlink"
 xmlns:xodm="http://www.corel.com/coreldraw/odm/2003">
 <defs>
  <style type="text/css">
   <![CDATA[
    .fil1 {fill:#00A0FB}
    .fil0 {fill:#00A1FC}
    .fil2 {fill:white}
   ]]>
  </style>
 </defs>
 <g id="Layer_x0020_1">
  <metadata id="CorelCorpID_0Corel-Layer"/>
  <g id="_105553398259712">
   <path class="fil0" d="M17629.84 1180.61c944.21,-12.92 1642.37,684.8 1641.59,1624.38 -0.79,939.57 -703.86,1631.69 -1641.59,1624.37 -937.72,-7.32 -1649.93,-694.88 -1641.58,-1624.37 8.36,-929.5 697.37,-1611.46 1641.58,-1624.38zm10.33 667.65c509.39,0.59 862.78,407.13 862.16,956.74 -0.61,549.59 -353.98,949.99 -862.16,956.73 -508.16,6.74 -875.97,-398.52 -874.13,-956.73 1.84,-558.22 364.75,-957.33 874.13,-956.74z"/>
   <path class="fil0" d="M14126.36 3182.52c0,679.17 377.79,1182.88 984.91,1182.88l675.36 0 0 -704.1c-1010.68,0 -872.34,72.59 -872.34,-1774.32l872.34 0 0 -647.77 -872.34 0 0 -957.58 -787.93 0 0 2900.89z"/>
   <path class="fil1" d="M11931.43 2196.79l0 2168.62 787.93 0 0 -2084.12c0,-435.79 638.94,-337.97 1041.18,-337.97l0 -704.1 -844.2 0c-516.26,0 -984.91,438.88 -984.91,957.58z"/>
   <path class="fil0" d="M9951.86 1177.99c944.21,-12.92 1642.37,684.8 1641.59,1624.38 -0.79,939.57 -703.86,1631.69 -1641.59,1624.37 -937.72,-7.32 -1649.93,-694.88 -1641.58,-1624.37 8.36,-929.5 697.37,-1611.46 1641.58,-1624.38zm10.33 667.65c509.39,0.59 862.78,407.13 862.16,956.74 -0.61,549.6 -353.98,949.99 -862.16,956.73 -508.16,6.75 -875.97,-398.52 -874.13,-956.73 1.84,-558.22 364.75,-957.32 874.13,-956.74z"/>
   <path class="fil0" d="M6697.36 2027.81l-759.79 0 0 -1323.71c848.04,0 1547.71,-126.36 1547.71,732.26 0,433.56 -376.01,591.45 -787.93,591.45zm-1603.99 2337.6l844.2 0 0 -1633.51c644.28,0 1462.9,79.77 1920.62,-330.86 823.08,-738.42 565.73,-2401.03 -1076.42,-2401.03l-1688.41 0 0 4365.41z"/>
   <path class="fil2" d="M2954.72 3717.63c26.83,-100.55 527.7,-563.28 56.28,-563.28 -429.49,0 -1263.84,364.18 -1680.6,542.93 -98.81,42.38 -161.5,69.4 -257.16,108.76 -92.98,38.24 -170.98,99.23 -285.3,108.75 309.79,-585.96 220.8,-503.54 365.82,-1126.56 314.59,-26.2 784.32,-422.46 2138.65,-422.46 223.4,0 506.52,94.86 506.52,309.8 0,334.1 -578.56,864.03 -844.2,1042.06zm-1857.25 -2196.78c554.86,-129.38 1040.16,-277.4 1699.99,-124.26 534.94,124.16 907.52,416.52 1029.6,941 -301.2,-201.86 -416.77,-253.48 -872.34,-253.48 -318.84,0 -665.77,62.93 -944.99,124.45l-855.98 213.52c0,-513.06 8.04,-399.34 -56.28,-901.24zm-506.52 -1042.07c691.19,0 1104.55,19.8 1642.55,186.72 408.51,126.74 908.16,433.25 1115.18,742.68 -93.49,-24.98 -172.84,-134.24 -467.15,-236.55 -370.93,-128.93 -837.42,-129.74 -1247.58,-99.59 -210.61,15.47 -434.44,82.67 -649.04,82.67 -65.63,-281.94 -208.25,-514.37 -393.96,-675.93z"/>
   <path class="fil0" d="M2954.72 3717.63c26.83,-100.55 527.7,-563.28 56.28,-563.28 -429.49,0 -1263.84,364.18 -1680.6,542.93 -98.81,42.38 -161.5,69.4 -257.16,108.76 -92.98,38.24 -170.98,99.23 -285.3,108.75 309.79,-585.96 220.8,-503.54 365.82,-1126.56 314.59,-26.2 784.32,-422.46 2138.65,-422.46 223.4,0 506.52,94.86 506.52,309.8 0,334.1 -578.56,864.03 -844.2,1042.06zm-1857.25 -2196.78c554.86,-129.38 1040.16,-277.4 1699.99,-124.26 534.94,124.16 907.52,416.52 1029.6,941 -301.2,-201.86 -416.77,-253.48 -872.34,-253.48 -318.84,0 -665.77,62.93 -944.99,124.45l-855.98 213.52c0,-513.06 8.04,-399.34 -56.28,-901.24zm-506.52 -1042.07c691.19,0 1104.55,19.8 1642.55,186.72 408.51,126.74 908.16,433.25 1115.18,742.68 -93.49,-24.98 -172.84,-134.24 -467.15,-236.55 -370.93,-128.93 -837.42,-129.74 -1247.58,-99.59 -210.61,15.47 -434.44,82.67 -649.04,82.67 -65.63,-281.94 -208.25,-514.37 -393.96,-675.93zm-590.95 -28.16l0 3436c0,227.21 206.56,478.78 422.11,478.78l3433.1 0c258.75,0 450.24,-276.89 450.24,-591.44l0 -3182.53c0,-357.27 -233.96,-591.44 -590.94,-591.44l-3123.56 0c-324.21,0 -590.95,212.61 -590.95,450.62z"/>
  </g>
 </g>
</svg>
